<mxfile host="app.diagrams.net" modified="2023-10-25T17:15:26.987Z" agent="Mozilla/5.0 (Windows NT 10.0; Win64; x64) AppleWebKit/537.36 (KHTML, like Gecko) Chrome/118.0.0.0 Safari/537.36" etag="rWOpNzZ4esw_pBmahw7A" version="22.0.8" type="gitlab">
  <diagram name="Page-1" id="QeGY7YJkOB6Gk27wGhlt">
    <mxGraphModel dx="1723" dy="1938" grid="1" gridSize="10" guides="1" tooltips="1" connect="1" arrows="1" fold="1" page="1" pageScale="1" pageWidth="850" pageHeight="1100" math="0" shadow="0">
      <root>
        <mxCell id="0" />
        <mxCell id="1" parent="0" />
        <mxCell id="7zxWy0AGlR2uwlpsadZP-35" value="" style="edgeStyle=orthogonalEdgeStyle;rounded=0;orthogonalLoop=1;jettySize=auto;html=1;" edge="1" parent="1" source="LMJcDKzFn9YI1MvOlHuu-1" target="LMJcDKzFn9YI1MvOlHuu-96">
          <mxGeometry relative="1" as="geometry" />
        </mxCell>
        <mxCell id="LMJcDKzFn9YI1MvOlHuu-1" value="יוצר/מקבל את ערכי המודל הסטיססטי CCA" style="rounded=0;whiteSpace=wrap;html=1;" parent="1" vertex="1">
          <mxGeometry x="709" y="-996" width="120" height="50" as="geometry" />
        </mxCell>
        <mxCell id="LMJcDKzFn9YI1MvOlHuu-8" style="edgeStyle=orthogonalEdgeStyle;rounded=0;orthogonalLoop=1;jettySize=auto;html=1;exitX=0.5;exitY=1;exitDx=0;exitDy=0;entryX=0.5;entryY=0;entryDx=0;entryDy=0;" parent="1" source="LMJcDKzFn9YI1MvOlHuu-29" target="LMJcDKzFn9YI1MvOlHuu-7" edge="1">
          <mxGeometry relative="1" as="geometry" />
        </mxCell>
        <mxCell id="LMJcDKzFn9YI1MvOlHuu-2" value="מקבל סרטון בזמן אמת או מתיקייה" style="rounded=0;whiteSpace=wrap;html=1;" parent="1" vertex="1">
          <mxGeometry x="400" y="-1000" width="120" height="60" as="geometry" />
        </mxCell>
        <mxCell id="LMJcDKzFn9YI1MvOlHuu-12" style="edgeStyle=orthogonalEdgeStyle;rounded=0;orthogonalLoop=1;jettySize=auto;html=1;exitX=0;exitY=0.5;exitDx=0;exitDy=0;entryX=1;entryY=0.5;entryDx=0;entryDy=0;" parent="1" source="LMJcDKzFn9YI1MvOlHuu-5" target="LMJcDKzFn9YI1MvOlHuu-10" edge="1">
          <mxGeometry relative="1" as="geometry" />
        </mxCell>
        <mxCell id="LMJcDKzFn9YI1MvOlHuu-5" value="מוצא את הפרמטר החסר &lt;br&gt;(FOCAL LENGTH/SENSOR SIZE)" style="rounded=1;whiteSpace=wrap;html=1;" parent="1" vertex="1">
          <mxGeometry x="501" y="-609" width="190" height="60" as="geometry" />
        </mxCell>
        <mxCell id="LMJcDKzFn9YI1MvOlHuu-9" style="edgeStyle=orthogonalEdgeStyle;rounded=0;orthogonalLoop=1;jettySize=auto;html=1;exitX=1;exitY=0.5;exitDx=0;exitDy=0;entryX=0.5;entryY=0;entryDx=0;entryDy=0;" parent="1" source="LMJcDKzFn9YI1MvOlHuu-7" target="LMJcDKzFn9YI1MvOlHuu-5" edge="1">
          <mxGeometry relative="1" as="geometry" />
        </mxCell>
        <mxCell id="LMJcDKzFn9YI1MvOlHuu-11" style="edgeStyle=orthogonalEdgeStyle;rounded=0;orthogonalLoop=1;jettySize=auto;html=1;exitX=0;exitY=0.5;exitDx=0;exitDy=0;entryX=0.5;entryY=0;entryDx=0;entryDy=0;" parent="1" source="LMJcDKzFn9YI1MvOlHuu-7" target="LMJcDKzFn9YI1MvOlHuu-10" edge="1">
          <mxGeometry relative="1" as="geometry" />
        </mxCell>
        <mxCell id="LMJcDKzFn9YI1MvOlHuu-7" value="האם יש את הפרמטרים הנדרשים" style="rhombus;whiteSpace=wrap;html=1;" parent="1" vertex="1">
          <mxGeometry x="417" y="-690" width="90" height="80" as="geometry" />
        </mxCell>
        <mxCell id="LMJcDKzFn9YI1MvOlHuu-18" style="edgeStyle=orthogonalEdgeStyle;rounded=0;orthogonalLoop=1;jettySize=auto;html=1;exitX=0;exitY=0.5;exitDx=0;exitDy=0;" parent="1" source="LMJcDKzFn9YI1MvOlHuu-10" target="LMJcDKzFn9YI1MvOlHuu-14" edge="1">
          <mxGeometry relative="1" as="geometry" />
        </mxCell>
        <mxCell id="LMJcDKzFn9YI1MvOlHuu-10" value="חישוב מרחק מעצם &lt;u style=&quot;font-weight: bold; font-style: italic;&quot;&gt;דומם&lt;/u&gt;&amp;nbsp;(שלט בדרך כלל) בדרך הראשונה" style="rounded=0;whiteSpace=wrap;html=1;" parent="1" vertex="1">
          <mxGeometry x="276" y="-610" width="120" height="60" as="geometry" />
        </mxCell>
        <mxCell id="LMJcDKzFn9YI1MvOlHuu-35" style="edgeStyle=orthogonalEdgeStyle;rounded=0;orthogonalLoop=1;jettySize=auto;html=1;exitX=0.5;exitY=1;exitDx=0;exitDy=0;entryX=0.5;entryY=0;entryDx=0;entryDy=0;" parent="1" source="LMJcDKzFn9YI1MvOlHuu-13" target="LMJcDKzFn9YI1MvOlHuu-34" edge="1">
          <mxGeometry relative="1" as="geometry" />
        </mxCell>
        <mxCell id="LMJcDKzFn9YI1MvOlHuu-189" style="edgeStyle=orthogonalEdgeStyle;rounded=0;orthogonalLoop=1;jettySize=auto;html=1;exitX=1;exitY=0.5;exitDx=0;exitDy=0;entryX=0.5;entryY=0;entryDx=0;entryDy=0;" parent="1" source="LMJcDKzFn9YI1MvOlHuu-13" target="LMJcDKzFn9YI1MvOlHuu-56" edge="1">
          <mxGeometry relative="1" as="geometry">
            <Array as="points">
              <mxPoint x="650" y="-481" />
              <mxPoint x="650" y="-350" />
              <mxPoint x="604" y="-350" />
            </Array>
          </mxGeometry>
        </mxCell>
        <mxCell id="LMJcDKzFn9YI1MvOlHuu-13" value="&amp;nbsp;חישוב מהירות המכונית &lt;b&gt;&lt;i&gt;&lt;u&gt;שלנו&lt;/u&gt;&lt;/i&gt;&lt;/b&gt;" style="rounded=1;whiteSpace=wrap;html=1;" parent="1" vertex="1">
          <mxGeometry x="510" y="-511" width="120" height="60" as="geometry" />
        </mxCell>
        <mxCell id="LMJcDKzFn9YI1MvOlHuu-45" style="edgeStyle=orthogonalEdgeStyle;rounded=0;orthogonalLoop=1;jettySize=auto;html=1;exitX=0;exitY=0.5;exitDx=0;exitDy=0;entryX=0;entryY=0.5;entryDx=0;entryDy=0;" parent="1" source="LMJcDKzFn9YI1MvOlHuu-14" target="LMJcDKzFn9YI1MvOlHuu-43" edge="1">
          <mxGeometry relative="1" as="geometry" />
        </mxCell>
        <mxCell id="LMJcDKzFn9YI1MvOlHuu-190" style="edgeStyle=orthogonalEdgeStyle;rounded=0;orthogonalLoop=1;jettySize=auto;html=1;exitX=1;exitY=0.5;exitDx=0;exitDy=0;entryX=0;entryY=0.5;entryDx=0;entryDy=0;" parent="1" source="LMJcDKzFn9YI1MvOlHuu-14" target="LMJcDKzFn9YI1MvOlHuu-186" edge="1">
          <mxGeometry relative="1" as="geometry" />
        </mxCell>
        <mxCell id="LMJcDKzFn9YI1MvOlHuu-14" value="חישבנו שתי מרחקים" style="rhombus;whiteSpace=wrap;html=1;" parent="1" vertex="1">
          <mxGeometry x="203" y="-558" width="80" height="80" as="geometry" />
        </mxCell>
        <mxCell id="LMJcDKzFn9YI1MvOlHuu-15" value="אין" style="ellipse;whiteSpace=wrap;html=1;" parent="1" vertex="1">
          <mxGeometry x="524" y="-660" width="50" height="20" as="geometry" />
        </mxCell>
        <mxCell id="LMJcDKzFn9YI1MvOlHuu-16" value="יש" style="ellipse;whiteSpace=wrap;html=1;" parent="1" vertex="1">
          <mxGeometry x="350" y="-660" width="50" height="20" as="geometry" />
        </mxCell>
        <mxCell id="LMJcDKzFn9YI1MvOlHuu-22" value="" style="edgeStyle=orthogonalEdgeStyle;rounded=0;orthogonalLoop=1;jettySize=auto;html=1;exitX=0.5;exitY=1;exitDx=0;exitDy=0;entryX=0.5;entryY=0;entryDx=0;entryDy=0;" parent="1" source="LMJcDKzFn9YI1MvOlHuu-2" target="LMJcDKzFn9YI1MvOlHuu-21" edge="1">
          <mxGeometry relative="1" as="geometry">
            <mxPoint x="450" y="-920" as="sourcePoint" />
            <mxPoint x="475" y="-780" as="targetPoint" />
          </mxGeometry>
        </mxCell>
        <mxCell id="LMJcDKzFn9YI1MvOlHuu-21" value="עובר פריים" style="rounded=0;whiteSpace=wrap;html=1;" parent="1" vertex="1">
          <mxGeometry x="400" y="-900" width="120" height="60" as="geometry" />
        </mxCell>
        <mxCell id="LMJcDKzFn9YI1MvOlHuu-30" value="" style="edgeStyle=orthogonalEdgeStyle;rounded=0;orthogonalLoop=1;jettySize=auto;html=1;exitX=0.5;exitY=1;exitDx=0;exitDy=0;entryX=0.5;entryY=0;entryDx=0;entryDy=0;" parent="1" source="LMJcDKzFn9YI1MvOlHuu-21" target="LMJcDKzFn9YI1MvOlHuu-29" edge="1">
          <mxGeometry relative="1" as="geometry">
            <mxPoint x="420" y="-840" as="sourcePoint" />
            <mxPoint x="475" y="-690" as="targetPoint" />
          </mxGeometry>
        </mxCell>
        <mxCell id="LMJcDKzFn9YI1MvOlHuu-29" value="שימוש בזיהוי שלטים" style="rounded=0;whiteSpace=wrap;html=1;" parent="1" vertex="1">
          <mxGeometry x="401" y="-800" width="120" height="60" as="geometry" />
        </mxCell>
        <mxCell id="7zxWy0AGlR2uwlpsadZP-38" value="" style="edgeStyle=orthogonalEdgeStyle;rounded=0;orthogonalLoop=1;jettySize=auto;html=1;" edge="1" parent="1" source="LMJcDKzFn9YI1MvOlHuu-34" target="LMJcDKzFn9YI1MvOlHuu-36">
          <mxGeometry relative="1" as="geometry" />
        </mxCell>
        <mxCell id="LMJcDKzFn9YI1MvOlHuu-34" value="זיהוי מכוניות" style="rounded=0;whiteSpace=wrap;html=1;" parent="1" vertex="1">
          <mxGeometry x="509" y="-421" width="120" height="60" as="geometry" />
        </mxCell>
        <mxCell id="7zxWy0AGlR2uwlpsadZP-39" value="" style="edgeStyle=orthogonalEdgeStyle;rounded=0;orthogonalLoop=1;jettySize=auto;html=1;" edge="1" parent="1" source="LMJcDKzFn9YI1MvOlHuu-36" target="LMJcDKzFn9YI1MvOlHuu-38">
          <mxGeometry relative="1" as="geometry" />
        </mxCell>
        <mxCell id="LMJcDKzFn9YI1MvOlHuu-36" value="חישוב מרחקי מכוניות בדרך השנייה" style="rounded=0;whiteSpace=wrap;html=1;" parent="1" vertex="1">
          <mxGeometry x="338" y="-422" width="120" height="60" as="geometry" />
        </mxCell>
        <mxCell id="7zxWy0AGlR2uwlpsadZP-43" style="edgeStyle=orthogonalEdgeStyle;rounded=0;orthogonalLoop=1;jettySize=auto;html=1;exitX=0.5;exitY=1;exitDx=0;exitDy=0;entryX=0;entryY=0.5;entryDx=0;entryDy=0;" edge="1" parent="1" source="LMJcDKzFn9YI1MvOlHuu-38" target="LMJcDKzFn9YI1MvOlHuu-49">
          <mxGeometry relative="1" as="geometry" />
        </mxCell>
        <mxCell id="LMJcDKzFn9YI1MvOlHuu-38" value="חישבנו שתי מרחקים" style="rhombus;whiteSpace=wrap;html=1;" parent="1" vertex="1">
          <mxGeometry x="235" y="-432" width="80" height="80" as="geometry" />
        </mxCell>
        <mxCell id="LMJcDKzFn9YI1MvOlHuu-40" style="edgeStyle=orthogonalEdgeStyle;rounded=0;orthogonalLoop=1;jettySize=auto;html=1;exitX=0.5;exitY=1;exitDx=0;exitDy=0;" parent="1" edge="1">
          <mxGeometry relative="1" as="geometry">
            <mxPoint x="115" y="-780" as="sourcePoint" />
            <mxPoint x="115" y="-780" as="targetPoint" />
          </mxGeometry>
        </mxCell>
        <mxCell id="LMJcDKzFn9YI1MvOlHuu-44" value="" style="edgeStyle=orthogonalEdgeStyle;rounded=0;orthogonalLoop=1;jettySize=auto;html=1;exitX=0;exitY=0.5;exitDx=0;exitDy=0;entryX=0;entryY=0.5;entryDx=0;entryDy=0;" parent="1" source="LMJcDKzFn9YI1MvOlHuu-38" target="LMJcDKzFn9YI1MvOlHuu-43" edge="1">
          <mxGeometry relative="1" as="geometry">
            <mxPoint x="140" y="-220" as="sourcePoint" />
            <mxPoint x="360" y="-870" as="targetPoint" />
          </mxGeometry>
        </mxCell>
        <mxCell id="7zxWy0AGlR2uwlpsadZP-56" value="" style="edgeStyle=orthogonalEdgeStyle;rounded=0;orthogonalLoop=1;jettySize=auto;html=1;" edge="1" parent="1" source="LMJcDKzFn9YI1MvOlHuu-43" target="LMJcDKzFn9YI1MvOlHuu-21">
          <mxGeometry relative="1" as="geometry" />
        </mxCell>
        <mxCell id="LMJcDKzFn9YI1MvOlHuu-43" value="שמירת נתונים" style="rounded=0;whiteSpace=wrap;html=1;" parent="1" vertex="1">
          <mxGeometry x="202" y="-900" width="120" height="60" as="geometry" />
        </mxCell>
        <mxCell id="LMJcDKzFn9YI1MvOlHuu-58" style="edgeStyle=orthogonalEdgeStyle;rounded=0;orthogonalLoop=1;jettySize=auto;html=1;exitX=1;exitY=0.5;exitDx=0;exitDy=0;" parent="1" source="LMJcDKzFn9YI1MvOlHuu-49" target="LMJcDKzFn9YI1MvOlHuu-56" edge="1">
          <mxGeometry relative="1" as="geometry">
            <Array as="points">
              <mxPoint x="604" y="-304" />
            </Array>
          </mxGeometry>
        </mxCell>
        <mxCell id="LMJcDKzFn9YI1MvOlHuu-49" value="חישוב מהירות מכונית" style="rounded=0;whiteSpace=wrap;html=1;" parent="1" vertex="1">
          <mxGeometry x="393" y="-334" width="120" height="60" as="geometry" />
        </mxCell>
        <mxCell id="LMJcDKzFn9YI1MvOlHuu-52" value="יש" style="ellipse;whiteSpace=wrap;html=1;" parent="1" vertex="1">
          <mxGeometry x="290" y="-310" width="50" height="20" as="geometry" />
        </mxCell>
        <mxCell id="LMJcDKzFn9YI1MvOlHuu-57" style="edgeStyle=orthogonalEdgeStyle;rounded=0;orthogonalLoop=1;jettySize=auto;html=1;exitX=0;exitY=0.5;exitDx=0;exitDy=0;entryX=0;entryY=0.5;entryDx=0;entryDy=0;" parent="1" source="LMJcDKzFn9YI1MvOlHuu-56" target="LMJcDKzFn9YI1MvOlHuu-43" edge="1">
          <mxGeometry relative="1" as="geometry" />
        </mxCell>
        <mxCell id="LMJcDKzFn9YI1MvOlHuu-63" style="edgeStyle=orthogonalEdgeStyle;rounded=0;orthogonalLoop=1;jettySize=auto;html=1;exitX=1;exitY=0.5;exitDx=0;exitDy=0;entryX=0;entryY=0.5;entryDx=0;entryDy=0;" parent="1" source="LMJcDKzFn9YI1MvOlHuu-56" target="LMJcDKzFn9YI1MvOlHuu-62" edge="1">
          <mxGeometry relative="1" as="geometry" />
        </mxCell>
        <mxCell id="LMJcDKzFn9YI1MvOlHuu-56" value="חישבנו שתי מהירויות" style="rhombus;whiteSpace=wrap;html=1;" parent="1" vertex="1">
          <mxGeometry x="564" y="-290" width="80" height="80" as="geometry" />
        </mxCell>
        <mxCell id="LMJcDKzFn9YI1MvOlHuu-59" value="יש" style="ellipse;whiteSpace=wrap;html=1;" parent="1" vertex="1">
          <mxGeometry x="647" y="-305" width="50" height="20" as="geometry" />
        </mxCell>
        <mxCell id="LMJcDKzFn9YI1MvOlHuu-60" value="אין" style="ellipse;whiteSpace=wrap;html=1;" parent="1" vertex="1">
          <mxGeometry x="153" y="-637" width="50" height="20" as="geometry" />
        </mxCell>
        <mxCell id="7zxWy0AGlR2uwlpsadZP-64" value="" style="edgeStyle=orthogonalEdgeStyle;rounded=0;orthogonalLoop=1;jettySize=auto;html=1;" edge="1" parent="1" source="LMJcDKzFn9YI1MvOlHuu-62" target="LMJcDKzFn9YI1MvOlHuu-65">
          <mxGeometry relative="1" as="geometry" />
        </mxCell>
        <mxCell id="LMJcDKzFn9YI1MvOlHuu-62" value="חישוב תאוצה" style="rounded=0;whiteSpace=wrap;html=1;" parent="1" vertex="1">
          <mxGeometry x="713" y="-399" width="120" height="60" as="geometry" />
        </mxCell>
        <mxCell id="7zxWy0AGlR2uwlpsadZP-44" value="" style="edgeStyle=orthogonalEdgeStyle;rounded=0;orthogonalLoop=1;jettySize=auto;html=1;" edge="1" parent="1" source="LMJcDKzFn9YI1MvOlHuu-65" target="LMJcDKzFn9YI1MvOlHuu-67">
          <mxGeometry relative="1" as="geometry" />
        </mxCell>
        <mxCell id="LMJcDKzFn9YI1MvOlHuu-65" value="המרת&lt;br&gt;RGB -&amp;gt;HSL" style="rounded=0;whiteSpace=wrap;html=1;align=center;" parent="1" vertex="1">
          <mxGeometry x="713" y="-500" width="120" height="60" as="geometry" />
        </mxCell>
        <mxCell id="7zxWy0AGlR2uwlpsadZP-45" style="edgeStyle=orthogonalEdgeStyle;rounded=0;orthogonalLoop=1;jettySize=auto;html=1;exitX=0.5;exitY=0;exitDx=0;exitDy=0;" edge="1" parent="1" source="LMJcDKzFn9YI1MvOlHuu-67" target="LMJcDKzFn9YI1MvOlHuu-69">
          <mxGeometry relative="1" as="geometry" />
        </mxCell>
        <mxCell id="LMJcDKzFn9YI1MvOlHuu-67" value="זיהוי כביש" style="rounded=0;whiteSpace=wrap;html=1;" parent="1" vertex="1">
          <mxGeometry x="713" y="-591" width="120" height="60" as="geometry" />
        </mxCell>
        <mxCell id="7zxWy0AGlR2uwlpsadZP-46" value="" style="edgeStyle=orthogonalEdgeStyle;rounded=0;orthogonalLoop=1;jettySize=auto;html=1;" edge="1" parent="1" source="LMJcDKzFn9YI1MvOlHuu-69" target="LMJcDKzFn9YI1MvOlHuu-71">
          <mxGeometry relative="1" as="geometry" />
        </mxCell>
        <mxCell id="LMJcDKzFn9YI1MvOlHuu-69" value="זיהוי נתיבי כביש" style="rounded=0;whiteSpace=wrap;html=1;" parent="1" vertex="1">
          <mxGeometry x="713" y="-701" width="120" height="60" as="geometry" />
        </mxCell>
        <mxCell id="7zxWy0AGlR2uwlpsadZP-48" value="" style="edgeStyle=orthogonalEdgeStyle;rounded=0;orthogonalLoop=1;jettySize=auto;html=1;" edge="1" parent="1" source="LMJcDKzFn9YI1MvOlHuu-71" target="LMJcDKzFn9YI1MvOlHuu-184">
          <mxGeometry relative="1" as="geometry" />
        </mxCell>
        <mxCell id="LMJcDKzFn9YI1MvOlHuu-71" value="זיהוי פניות" style="rounded=0;whiteSpace=wrap;html=1;" parent="1" vertex="1">
          <mxGeometry x="713" y="-789" width="120" height="60" as="geometry" />
        </mxCell>
        <mxCell id="7zxWy0AGlR2uwlpsadZP-36" value="" style="edgeStyle=orthogonalEdgeStyle;rounded=0;orthogonalLoop=1;jettySize=auto;html=1;" edge="1" parent="1" source="LMJcDKzFn9YI1MvOlHuu-96" target="LMJcDKzFn9YI1MvOlHuu-2">
          <mxGeometry relative="1" as="geometry" />
        </mxCell>
        <mxCell id="LMJcDKzFn9YI1MvOlHuu-96" value="נועל את מנעול הנתונים" style="rounded=0;whiteSpace=wrap;html=1;" parent="1" vertex="1">
          <mxGeometry x="560" y="-1000" width="120" height="60" as="geometry" />
        </mxCell>
        <mxCell id="7zxWy0AGlR2uwlpsadZP-50" value="" style="edgeStyle=orthogonalEdgeStyle;rounded=0;orthogonalLoop=1;jettySize=auto;html=1;" edge="1" parent="1" source="LMJcDKzFn9YI1MvOlHuu-98" target="7zxWy0AGlR2uwlpsadZP-28">
          <mxGeometry relative="1" as="geometry" />
        </mxCell>
        <mxCell id="LMJcDKzFn9YI1MvOlHuu-98" value="פותח את מנעול הנתונים" style="rounded=0;whiteSpace=wrap;html=1;" parent="1" vertex="1">
          <mxGeometry x="881" y="-701.5" width="120" height="60" as="geometry" />
        </mxCell>
        <mxCell id="LMJcDKzFn9YI1MvOlHuu-124" style="edgeStyle=orthogonalEdgeStyle;rounded=0;orthogonalLoop=1;jettySize=auto;html=1;exitX=0.5;exitY=0;exitDx=0;exitDy=0;entryX=1;entryY=0.25;entryDx=0;entryDy=0;" parent="1" source="LMJcDKzFn9YI1MvOlHuu-100" target="LMJcDKzFn9YI1MvOlHuu-21" edge="1">
          <mxGeometry relative="1" as="geometry" />
        </mxCell>
        <mxCell id="LMJcDKzFn9YI1MvOlHuu-100" value="האם התוכנה הממשיכה לצלם" style="rhombus;whiteSpace=wrap;html=1;" parent="1" vertex="1">
          <mxGeometry x="1134" y="-711.5" width="95" height="130" as="geometry" />
        </mxCell>
        <mxCell id="LMJcDKzFn9YI1MvOlHuu-120" value="כן" style="ellipse;whiteSpace=wrap;html=1;" parent="1" vertex="1">
          <mxGeometry x="970" y="-896" width="50" height="20" as="geometry" />
        </mxCell>
        <mxCell id="LMJcDKzFn9YI1MvOlHuu-128" value="אימון המודל הסטטיסטי בסוף כל ריצת תוכנית&lt;span id=&quot;docs-internal-guid-aba16c06-7fff-29e9-74bd-bfd41f4ed161&quot;&gt;&lt;/span&gt;" style="rounded=0;whiteSpace=wrap;html=1;" parent="1" vertex="1">
          <mxGeometry x="1338" y="-586.5" width="120" height="60" as="geometry" />
        </mxCell>
        <mxCell id="LMJcDKzFn9YI1MvOlHuu-178" style="edgeStyle=orthogonalEdgeStyle;rounded=0;orthogonalLoop=1;jettySize=auto;html=1;exitX=0.5;exitY=1;exitDx=0;exitDy=0;entryX=0.5;entryY=0;entryDx=0;entryDy=0;" parent="1" source="LMJcDKzFn9YI1MvOlHuu-173" target="LMJcDKzFn9YI1MvOlHuu-174" edge="1">
          <mxGeometry relative="1" as="geometry" />
        </mxCell>
        <mxCell id="LMJcDKzFn9YI1MvOlHuu-173" value="לחכות למנעול הנתונים שיפתח" style="rounded=0;whiteSpace=wrap;html=1;" parent="1" vertex="1">
          <mxGeometry x="3055" y="-860" width="120" height="60" as="geometry" />
        </mxCell>
        <mxCell id="LMJcDKzFn9YI1MvOlHuu-197" style="edgeStyle=orthogonalEdgeStyle;rounded=0;orthogonalLoop=1;jettySize=auto;html=1;exitX=0.5;exitY=1;exitDx=0;exitDy=0;" parent="1" source="LMJcDKzFn9YI1MvOlHuu-174" target="LMJcDKzFn9YI1MvOlHuu-194" edge="1">
          <mxGeometry relative="1" as="geometry" />
        </mxCell>
        <mxCell id="LMJcDKzFn9YI1MvOlHuu-174" value="האם נתוני המיקום השתנו" style="rhombus;whiteSpace=wrap;html=1;" parent="1" vertex="1">
          <mxGeometry x="3060" y="-751" width="110" height="110" as="geometry" />
        </mxCell>
        <mxCell id="LMJcDKzFn9YI1MvOlHuu-176" style="edgeStyle=orthogonalEdgeStyle;rounded=0;orthogonalLoop=1;jettySize=auto;html=1;exitX=1;exitY=0.5;exitDx=0;exitDy=0;entryX=0.5;entryY=0;entryDx=0;entryDy=0;" parent="1" source="LMJcDKzFn9YI1MvOlHuu-174" target="LMJcDKzFn9YI1MvOlHuu-174" edge="1">
          <mxGeometry relative="1" as="geometry">
            <Array as="points">
              <mxPoint x="3190" y="-689" />
              <mxPoint x="3190" y="-759" />
              <mxPoint x="3115" y="-759" />
            </Array>
          </mxGeometry>
        </mxCell>
        <mxCell id="LMJcDKzFn9YI1MvOlHuu-177" value="לא" style="ellipse;whiteSpace=wrap;html=1;" parent="1" vertex="1">
          <mxGeometry x="3165" y="-739" width="50" height="20" as="geometry" />
        </mxCell>
        <mxCell id="LMJcDKzFn9YI1MvOlHuu-204" style="edgeStyle=orthogonalEdgeStyle;rounded=0;orthogonalLoop=1;jettySize=auto;html=1;exitX=0.5;exitY=1;exitDx=0;exitDy=0;" parent="1" source="LMJcDKzFn9YI1MvOlHuu-180" target="LMJcDKzFn9YI1MvOlHuu-200" edge="1">
          <mxGeometry relative="1" as="geometry" />
        </mxCell>
        <mxCell id="LMJcDKzFn9YI1MvOlHuu-180" value="מיפוי לפריים בודד" style="rounded=0;whiteSpace=wrap;html=1;" parent="1" vertex="1">
          <mxGeometry x="3060" y="-474" width="120" height="60" as="geometry" />
        </mxCell>
        <mxCell id="7zxWy0AGlR2uwlpsadZP-49" value="" style="edgeStyle=orthogonalEdgeStyle;rounded=0;orthogonalLoop=1;jettySize=auto;html=1;" edge="1" parent="1" source="LMJcDKzFn9YI1MvOlHuu-184" target="LMJcDKzFn9YI1MvOlHuu-98">
          <mxGeometry relative="1" as="geometry" />
        </mxCell>
        <mxCell id="LMJcDKzFn9YI1MvOlHuu-184" value="שמירת נתוני ההתקדמות כנתוני מיקום" style="rounded=0;whiteSpace=wrap;html=1;" parent="1" vertex="1">
          <mxGeometry x="881" y="-789" width="120" height="60" as="geometry" />
        </mxCell>
        <mxCell id="7zxWy0AGlR2uwlpsadZP-37" value="" style="edgeStyle=orthogonalEdgeStyle;rounded=0;orthogonalLoop=1;jettySize=auto;html=1;" edge="1" parent="1" source="LMJcDKzFn9YI1MvOlHuu-186" target="LMJcDKzFn9YI1MvOlHuu-13">
          <mxGeometry relative="1" as="geometry" />
        </mxCell>
        <mxCell id="LMJcDKzFn9YI1MvOlHuu-186" value="שמירות המרחק שמכונית עשתה" style="rounded=0;whiteSpace=wrap;html=1;" parent="1" vertex="1">
          <mxGeometry x="350" y="-512" width="120" height="60" as="geometry" />
        </mxCell>
        <mxCell id="LMJcDKzFn9YI1MvOlHuu-188" value="יש" style="ellipse;whiteSpace=wrap;html=1;" parent="1" vertex="1">
          <mxGeometry x="288" y="-512" width="50" height="20" as="geometry" />
        </mxCell>
        <mxCell id="LMJcDKzFn9YI1MvOlHuu-192" style="edgeStyle=orthogonalEdgeStyle;rounded=0;orthogonalLoop=1;jettySize=auto;html=1;exitX=0.5;exitY=1;exitDx=0;exitDy=0;" parent="1" source="LMJcDKzFn9YI1MvOlHuu-191" target="LMJcDKzFn9YI1MvOlHuu-173" edge="1">
          <mxGeometry relative="1" as="geometry" />
        </mxCell>
        <mxCell id="LMJcDKzFn9YI1MvOlHuu-191" value="יצירת שולחן חדש לנסיעה" style="rounded=0;whiteSpace=wrap;html=1;" parent="1" vertex="1">
          <mxGeometry x="3055" y="-960" width="120" height="60" as="geometry" />
        </mxCell>
        <mxCell id="LMJcDKzFn9YI1MvOlHuu-198" style="edgeStyle=orthogonalEdgeStyle;rounded=0;orthogonalLoop=1;jettySize=auto;html=1;exitX=0.5;exitY=1;exitDx=0;exitDy=0;entryX=0.5;entryY=0;entryDx=0;entryDy=0;" parent="1" source="LMJcDKzFn9YI1MvOlHuu-194" target="LMJcDKzFn9YI1MvOlHuu-180" edge="1">
          <mxGeometry relative="1" as="geometry" />
        </mxCell>
        <mxCell id="LMJcDKzFn9YI1MvOlHuu-194" value="שמירה והצגת מקומות שבהם המכונית הייתה" style="rounded=0;whiteSpace=wrap;html=1;" parent="1" vertex="1">
          <mxGeometry x="3060" y="-563" width="120" height="60" as="geometry" />
        </mxCell>
        <mxCell id="LMJcDKzFn9YI1MvOlHuu-208" style="edgeStyle=orthogonalEdgeStyle;rounded=0;orthogonalLoop=1;jettySize=auto;html=1;exitX=0;exitY=0.5;exitDx=0;exitDy=0;entryX=0;entryY=0.5;entryDx=0;entryDy=0;" parent="1" source="LMJcDKzFn9YI1MvOlHuu-195" target="LMJcDKzFn9YI1MvOlHuu-174" edge="1">
          <mxGeometry relative="1" as="geometry" />
        </mxCell>
        <mxCell id="LMJcDKzFn9YI1MvOlHuu-195" value="ויזואליזציה של התוצאות" style="rounded=0;whiteSpace=wrap;html=1;" parent="1" vertex="1">
          <mxGeometry x="2950" y="-276" width="120" height="60" as="geometry" />
        </mxCell>
        <mxCell id="LMJcDKzFn9YI1MvOlHuu-203" style="edgeStyle=orthogonalEdgeStyle;rounded=0;orthogonalLoop=1;jettySize=auto;html=1;exitX=0;exitY=0.5;exitDx=0;exitDy=0;entryX=1;entryY=0.5;entryDx=0;entryDy=0;" parent="1" source="LMJcDKzFn9YI1MvOlHuu-196" target="LMJcDKzFn9YI1MvOlHuu-195" edge="1">
          <mxGeometry relative="1" as="geometry" />
        </mxCell>
        <mxCell id="LMJcDKzFn9YI1MvOlHuu-196" value="הצלבת פריימים" style="rounded=0;whiteSpace=wrap;html=1;" parent="1" vertex="1">
          <mxGeometry x="3160" y="-276" width="120" height="60" as="geometry" />
        </mxCell>
        <mxCell id="LMJcDKzFn9YI1MvOlHuu-202" style="edgeStyle=orthogonalEdgeStyle;rounded=0;orthogonalLoop=1;jettySize=auto;html=1;exitX=0;exitY=0.5;exitDx=0;exitDy=0;entryX=0.5;entryY=0;entryDx=0;entryDy=0;" parent="1" source="LMJcDKzFn9YI1MvOlHuu-200" target="LMJcDKzFn9YI1MvOlHuu-195" edge="1">
          <mxGeometry relative="1" as="geometry" />
        </mxCell>
        <mxCell id="LMJcDKzFn9YI1MvOlHuu-209" style="edgeStyle=orthogonalEdgeStyle;rounded=0;orthogonalLoop=1;jettySize=auto;html=1;exitX=1;exitY=0.5;exitDx=0;exitDy=0;entryX=0.5;entryY=0;entryDx=0;entryDy=0;" parent="1" source="LMJcDKzFn9YI1MvOlHuu-200" target="LMJcDKzFn9YI1MvOlHuu-196" edge="1">
          <mxGeometry relative="1" as="geometry" />
        </mxCell>
        <mxCell id="LMJcDKzFn9YI1MvOlHuu-200" value="האם יותר מפריים אחד" style="rhombus;whiteSpace=wrap;html=1;" parent="1" vertex="1">
          <mxGeometry x="3080" y="-391" width="80" height="80" as="geometry" />
        </mxCell>
        <mxCell id="LMJcDKzFn9YI1MvOlHuu-205" value="לא" style="ellipse;whiteSpace=wrap;html=1;" parent="1" vertex="1">
          <mxGeometry x="3020" y="-362" width="50" height="20" as="geometry" />
        </mxCell>
        <mxCell id="LMJcDKzFn9YI1MvOlHuu-206" value="כן" style="ellipse;whiteSpace=wrap;html=1;" parent="1" vertex="1">
          <mxGeometry x="3090" y="-620" width="50" height="20" as="geometry" />
        </mxCell>
        <mxCell id="LMJcDKzFn9YI1MvOlHuu-207" value="כן" style="ellipse;whiteSpace=wrap;html=1;" parent="1" vertex="1">
          <mxGeometry x="3167" y="-361" width="50" height="20" as="geometry" />
        </mxCell>
        <mxCell id="LMJcDKzFn9YI1MvOlHuu-214" value="" style="edgeStyle=orthogonalEdgeStyle;rounded=0;orthogonalLoop=1;jettySize=auto;html=1;exitX=1;exitY=0.5;exitDx=0;exitDy=0;entryX=0;entryY=0.5;entryDx=0;entryDy=0;" parent="1" source="LMJcDKzFn9YI1MvOlHuu-100" target="LMJcDKzFn9YI1MvOlHuu-213" edge="1">
          <mxGeometry relative="1" as="geometry">
            <mxPoint x="1259" y="-274" as="sourcePoint" />
            <mxPoint x="1624" y="-274" as="targetPoint" />
          </mxGeometry>
        </mxCell>
        <mxCell id="LMJcDKzFn9YI1MvOlHuu-216" style="edgeStyle=orthogonalEdgeStyle;rounded=0;orthogonalLoop=1;jettySize=auto;html=1;exitX=0.5;exitY=1;exitDx=0;exitDy=0;entryX=0.5;entryY=0;entryDx=0;entryDy=0;" parent="1" source="LMJcDKzFn9YI1MvOlHuu-213" target="LMJcDKzFn9YI1MvOlHuu-128" edge="1">
          <mxGeometry relative="1" as="geometry" />
        </mxCell>
        <mxCell id="LMJcDKzFn9YI1MvOlHuu-213" value="ליקוט לטבלת שימוש המודל הסטיססטי" style="rounded=0;whiteSpace=wrap;html=1;" parent="1" vertex="1">
          <mxGeometry x="1338" y="-676.5" width="120" height="60" as="geometry" />
        </mxCell>
        <mxCell id="LMJcDKzFn9YI1MvOlHuu-215" value="לא" style="ellipse;whiteSpace=wrap;html=1;" parent="1" vertex="1">
          <mxGeometry x="1257" y="-658.5" width="50" height="20" as="geometry" />
        </mxCell>
        <mxCell id="FR6d8AguLFO8g1oIfc2z-9" style="edgeStyle=orthogonalEdgeStyle;rounded=0;orthogonalLoop=1;jettySize=auto;html=1;exitX=0.5;exitY=1;exitDx=0;exitDy=0;entryX=0.5;entryY=0;entryDx=0;entryDy=0;" parent="1" source="FR6d8AguLFO8g1oIfc2z-1" target="FR6d8AguLFO8g1oIfc2z-2" edge="1">
          <mxGeometry relative="1" as="geometry" />
        </mxCell>
        <mxCell id="FR6d8AguLFO8g1oIfc2z-1" value="קבלת המצב הרגעי של המערכת" style="rounded=0;whiteSpace=wrap;html=1;" parent="1" vertex="1">
          <mxGeometry x="1830" y="-677.5" width="120" height="60" as="geometry" />
        </mxCell>
        <mxCell id="FR6d8AguLFO8g1oIfc2z-10" style="edgeStyle=orthogonalEdgeStyle;rounded=0;orthogonalLoop=1;jettySize=auto;html=1;exitX=0.5;exitY=1;exitDx=0;exitDy=0;entryX=0.5;entryY=0;entryDx=0;entryDy=0;" parent="1" source="FR6d8AguLFO8g1oIfc2z-2" target="FR6d8AguLFO8g1oIfc2z-3" edge="1">
          <mxGeometry relative="1" as="geometry" />
        </mxCell>
        <mxCell id="FR6d8AguLFO8g1oIfc2z-2" value="חיזוי של המצב המערכת הבא על ידי מודל סטססטי" style="rounded=0;whiteSpace=wrap;html=1;" parent="1" vertex="1">
          <mxGeometry x="1815" y="-587.5" width="150" height="70" as="geometry" />
        </mxCell>
        <mxCell id="FR6d8AguLFO8g1oIfc2z-6" style="edgeStyle=orthogonalEdgeStyle;rounded=0;orthogonalLoop=1;jettySize=auto;html=1;exitX=1;exitY=0.5;exitDx=0;exitDy=0;entryX=0;entryY=0.5;entryDx=0;entryDy=0;" parent="1" source="FR6d8AguLFO8g1oIfc2z-12" target="FR6d8AguLFO8g1oIfc2z-5" edge="1">
          <mxGeometry relative="1" as="geometry">
            <Array as="points">
              <mxPoint x="2140" y="-467.5" />
              <mxPoint x="2140" y="-507.5" />
              <mxPoint x="2132" y="-507.5" />
              <mxPoint x="2132" y="-532.5" />
            </Array>
          </mxGeometry>
        </mxCell>
        <mxCell id="FR6d8AguLFO8g1oIfc2z-3" value="חיזוי פיזקלי&amp;nbsp;&lt;br&gt;+&lt;br&gt;KALMAN FILTER(for prediction)" style="rounded=0;whiteSpace=wrap;html=1;" parent="1" vertex="1">
          <mxGeometry x="1799" y="-457.5" width="230" height="110" as="geometry" />
        </mxCell>
        <mxCell id="FR6d8AguLFO8g1oIfc2z-7" style="edgeStyle=orthogonalEdgeStyle;rounded=0;orthogonalLoop=1;jettySize=auto;html=1;exitX=0;exitY=0.5;exitDx=0;exitDy=0;entryX=1;entryY=0.5;entryDx=0;entryDy=0;" parent="1" source="FR6d8AguLFO8g1oIfc2z-4" target="FR6d8AguLFO8g1oIfc2z-5" edge="1">
          <mxGeometry relative="1" as="geometry" />
        </mxCell>
        <mxCell id="FR6d8AguLFO8g1oIfc2z-4" value="השגת נתוני המצב" style="rounded=0;whiteSpace=wrap;html=1;" parent="1" vertex="1">
          <mxGeometry x="2390" y="-587.5" width="186" height="90" as="geometry" />
        </mxCell>
        <mxCell id="FR6d8AguLFO8g1oIfc2z-17" style="edgeStyle=orthogonalEdgeStyle;rounded=0;orthogonalLoop=1;jettySize=auto;html=1;exitX=0.5;exitY=0;exitDx=0;exitDy=0;entryX=1;entryY=0.5;entryDx=0;entryDy=0;" parent="1" source="FR6d8AguLFO8g1oIfc2z-5" target="FR6d8AguLFO8g1oIfc2z-14" edge="1">
          <mxGeometry relative="1" as="geometry" />
        </mxCell>
        <mxCell id="FR6d8AguLFO8g1oIfc2z-5" value="קלמן פילטר למצב העכשווי" style="rounded=0;whiteSpace=wrap;html=1;" parent="1" vertex="1">
          <mxGeometry x="2151.5" y="-577.5" width="139" height="90" as="geometry" />
        </mxCell>
        <mxCell id="FR6d8AguLFO8g1oIfc2z-11" value="זה יהיה ה&lt;br&gt;Z" style="text;html=1;strokeColor=none;fillColor=none;align=center;verticalAlign=middle;whiteSpace=wrap;rounded=0;" parent="1" vertex="1">
          <mxGeometry x="2311" y="-587.5" width="70" height="30" as="geometry" />
        </mxCell>
        <mxCell id="FR6d8AguLFO8g1oIfc2z-13" value="" style="edgeStyle=orthogonalEdgeStyle;rounded=0;orthogonalLoop=1;jettySize=auto;html=1;exitX=1;exitY=0.5;exitDx=0;exitDy=0;entryX=0;entryY=0.5;entryDx=0;entryDy=0;" parent="1" source="FR6d8AguLFO8g1oIfc2z-3" target="FR6d8AguLFO8g1oIfc2z-12" edge="1">
          <mxGeometry relative="1" as="geometry">
            <mxPoint x="2030" y="-402.5" as="sourcePoint" />
            <mxPoint x="2152" y="-532.5" as="targetPoint" />
          </mxGeometry>
        </mxCell>
        <mxCell id="FR6d8AguLFO8g1oIfc2z-12" value="זה יהיה תוצאת שלב החיזוי&amp;nbsp;" style="text;html=1;strokeColor=none;fillColor=none;align=center;verticalAlign=middle;whiteSpace=wrap;rounded=0;" parent="1" vertex="1">
          <mxGeometry x="2060" y="-497.5" width="60" height="60" as="geometry" />
        </mxCell>
        <mxCell id="FR6d8AguLFO8g1oIfc2z-18" style="edgeStyle=orthogonalEdgeStyle;rounded=0;orthogonalLoop=1;jettySize=auto;html=1;exitX=0;exitY=0.5;exitDx=0;exitDy=0;entryX=1;entryY=0.5;entryDx=0;entryDy=0;" parent="1" source="FR6d8AguLFO8g1oIfc2z-14" target="FR6d8AguLFO8g1oIfc2z-1" edge="1">
          <mxGeometry relative="1" as="geometry" />
        </mxCell>
        <mxCell id="FR6d8AguLFO8g1oIfc2z-14" value="התוצאות הם המצב העכשווי שממנו אפשר לעשות חיזוי" style="text;html=1;strokeColor=none;fillColor=none;align=center;verticalAlign=middle;whiteSpace=wrap;rounded=0;" parent="1" vertex="1">
          <mxGeometry x="2035" y="-687.5" width="110" height="80" as="geometry" />
        </mxCell>
        <mxCell id="7zxWy0AGlR2uwlpsadZP-52" style="edgeStyle=orthogonalEdgeStyle;rounded=0;orthogonalLoop=1;jettySize=auto;html=1;exitX=0.5;exitY=1;exitDx=0;exitDy=0;entryX=0.5;entryY=0;entryDx=0;entryDy=0;" edge="1" parent="1" source="7zxWy0AGlR2uwlpsadZP-2" target="7zxWy0AGlR2uwlpsadZP-4">
          <mxGeometry relative="1" as="geometry" />
        </mxCell>
        <mxCell id="7zxWy0AGlR2uwlpsadZP-2" value="חיזוי על ידי מודל סטיססטי" style="rounded=0;whiteSpace=wrap;html=1;" vertex="1" parent="1">
          <mxGeometry x="880" y="-497" width="120" height="60" as="geometry" />
        </mxCell>
        <mxCell id="7zxWy0AGlR2uwlpsadZP-18" value="" style="edgeStyle=orthogonalEdgeStyle;rounded=0;orthogonalLoop=1;jettySize=auto;html=1;" edge="1" parent="1" source="7zxWy0AGlR2uwlpsadZP-4" target="7zxWy0AGlR2uwlpsadZP-13">
          <mxGeometry relative="1" as="geometry" />
        </mxCell>
        <mxCell id="7zxWy0AGlR2uwlpsadZP-4" value="שימוש בקלמן פילטר לחיזוי" style="rounded=0;whiteSpace=wrap;html=1;" vertex="1" parent="1">
          <mxGeometry x="881" y="-401" width="120" height="60" as="geometry" />
        </mxCell>
        <mxCell id="7zxWy0AGlR2uwlpsadZP-53" style="edgeStyle=orthogonalEdgeStyle;rounded=0;orthogonalLoop=1;jettySize=auto;html=1;exitX=1;exitY=0.5;exitDx=0;exitDy=0;" edge="1" parent="1" source="7zxWy0AGlR2uwlpsadZP-13" target="7zxWy0AGlR2uwlpsadZP-14">
          <mxGeometry relative="1" as="geometry" />
        </mxCell>
        <mxCell id="7zxWy0AGlR2uwlpsadZP-58" style="edgeStyle=orthogonalEdgeStyle;rounded=0;orthogonalLoop=1;jettySize=auto;html=1;exitX=0.5;exitY=0;exitDx=0;exitDy=0;entryX=0.5;entryY=1;entryDx=0;entryDy=0;" edge="1" parent="1" source="7zxWy0AGlR2uwlpsadZP-13" target="7zxWy0AGlR2uwlpsadZP-30">
          <mxGeometry relative="1" as="geometry" />
        </mxCell>
        <mxCell id="7zxWy0AGlR2uwlpsadZP-13" value="האם תאונה" style="rhombus;whiteSpace=wrap;html=1;" vertex="1" parent="1">
          <mxGeometry x="1041.5" y="-411" width="80" height="80" as="geometry" />
        </mxCell>
        <mxCell id="7zxWy0AGlR2uwlpsadZP-62" style="edgeStyle=orthogonalEdgeStyle;rounded=0;orthogonalLoop=1;jettySize=auto;html=1;exitX=0.5;exitY=0;exitDx=0;exitDy=0;entryX=1;entryY=0.25;entryDx=0;entryDy=0;" edge="1" parent="1" source="7zxWy0AGlR2uwlpsadZP-14" target="7zxWy0AGlR2uwlpsadZP-30">
          <mxGeometry relative="1" as="geometry" />
        </mxCell>
        <mxCell id="7zxWy0AGlR2uwlpsadZP-14" value="מתריע" style="rounded=0;whiteSpace=wrap;html=1;" vertex="1" parent="1">
          <mxGeometry x="1220" y="-400" width="120" height="60" as="geometry" />
        </mxCell>
        <mxCell id="7zxWy0AGlR2uwlpsadZP-16" value="כן" style="ellipse;whiteSpace=wrap;html=1;" vertex="1" parent="1">
          <mxGeometry x="1145" y="-379" width="50" height="20" as="geometry" />
        </mxCell>
        <mxCell id="7zxWy0AGlR2uwlpsadZP-51" style="edgeStyle=orthogonalEdgeStyle;rounded=0;orthogonalLoop=1;jettySize=auto;html=1;exitX=0.5;exitY=1;exitDx=0;exitDy=0;entryX=0.5;entryY=0;entryDx=0;entryDy=0;" edge="1" parent="1" source="7zxWy0AGlR2uwlpsadZP-28" target="7zxWy0AGlR2uwlpsadZP-2">
          <mxGeometry relative="1" as="geometry" />
        </mxCell>
        <mxCell id="7zxWy0AGlR2uwlpsadZP-28" value="שימוש בקלמן פילטר למצב העכשווי" style="rounded=0;whiteSpace=wrap;html=1;" vertex="1" parent="1">
          <mxGeometry x="881" y="-591" width="120" height="60" as="geometry" />
        </mxCell>
        <mxCell id="7zxWy0AGlR2uwlpsadZP-32" value="" style="edgeStyle=orthogonalEdgeStyle;rounded=0;orthogonalLoop=1;jettySize=auto;html=1;" edge="1" parent="1" source="7zxWy0AGlR2uwlpsadZP-30" target="LMJcDKzFn9YI1MvOlHuu-100">
          <mxGeometry relative="1" as="geometry" />
        </mxCell>
        <mxCell id="7zxWy0AGlR2uwlpsadZP-30" value="שמירת נתוני הקלמן פילטר" style="rounded=0;whiteSpace=wrap;html=1;" vertex="1" parent="1">
          <mxGeometry x="1122.5" y="-540" width="120" height="60" as="geometry" />
        </mxCell>
        <mxCell id="7zxWy0AGlR2uwlpsadZP-60" value="לא" style="ellipse;whiteSpace=wrap;html=1;" vertex="1" parent="1">
          <mxGeometry x="1104" y="-454" width="50" height="20" as="geometry" />
        </mxCell>
      </root>
    </mxGraphModel>
  </diagram>
</mxfile>
